<svg xmlns="http://www.w3.org/2000/svg" viewBox="0 0 24 24" width="384" height="384"><path d="M16 21c2.2 0 5-3 5-5H3c0 4 4 5 4 5h9z" opacity=".3"/><path d="M16 22H6.8C5.1 21.6 2 19.8 2 16c0-.3.1-.5.3-.7s.4-.3.7-.3h18c.6 0 1 .4 1 1 0 2.7-3.3 6-6 6zm-8.9-2H16c1.3 0 3.1-1.6 3.7-3H4.1c.5 2.1 2.5 2.8 3 3zm5.9-7c-.2 0-.5-.1-.6-.2-.3-.2-.4-.5-.4-.8v-.1c0-.2.1-.5.2-.7.2-.2.8-1.3.8-2.7 0-1.8-.9-3.9-.9-3.9-.1-.1-.1-.3-.1-.4V4c0-.3.2-.6.4-.8.3-.2.6-.2.9-.1.3.1 6.7 2.6 6.7 7.9 0 .5-.4.9-.8 1l-6 1H13zm1.7-7c.1.8.3 1.7.3 2.5s-.2 1.6-.4 2.2l3.3-.5C17.6 8.3 16 6.9 14.7 6zM4 13c-.3 0-.5-.1-.7-.3s-.3-.5-.3-.8v-.1c0-.2.1-.4.2-.6 0-.1.7-1.1.7-3.7 0-2.2-.6-3.6-.8-3.9-.1-.1-.1-.3-.1-.4V3c0-.5.4-1 .9-1C4 2 7 1.8 9.4 4c1.7 1.6 2.6 4 2.6 7.1 0 .5-.4.9-.9 1l-7 .9H4zm1.4-8.9c.2.8.5 2 .5 3.4 0 1.3-.1 2.4-.4 3.3l4.5-.6c-.2-2.1-.8-3.7-1.9-4.8-.9-.7-1.9-1.1-2.7-1.3z"/></svg>