<svg xmlns="http://www.w3.org/2000/svg"  viewBox="0 0 24 24" width="384px" height="384px"><path d="M16,21c2.2,0,5-3,5-5H3c0,4,4,5,4,5H16z" opacity=".3"/><path d="M16 22L16 22H7c-.1 0-.2 0-.2 0C5.1 21.6 2 19.8 2 16c0-.3.1-.5.3-.7S2.7 15 3 15l0 0h18c.6 0 1 .4 1 1C22 18.7 18.7 22 16 22zM7.1 20H16c1.3 0 3.1-1.6 3.7-3H4.1C4.6 19.1 6.6 19.8 7.1 20zM13 13c-.2 0-.5-.1-.6-.2C12.1 12.6 12 12.3 12 12v-.1c0-.2.1-.5.2-.7C12.4 11 13 9.9 13 8.5c0-1.8-.9-3.9-.9-3.9C12 4.5 12 4.3 12 4.2V4c0-.3.2-.6.4-.8C12.7 3 13 3 13.3 3.1 13.6 3.2 20 5.7 20 11c0 .5-.4.9-.8 1l-6 1C13.1 13 13.1 13 13 13zM14.7 6C14.8 6.8 15 7.7 15 8.5s-.2 1.6-.4 2.2l3.3-.5C17.6 8.3 16 6.9 14.7 6zM4 13c-.3 0-.5-.1-.7-.3S3 12.2 3 11.9v-.1c0-.2.1-.4.2-.6 0-.1.7-1.1.7-3.7 0-2.2-.6-3.6-.8-3.9C3 3.5 3 3.3 3 3.2l0 0V3c0-.5.4-1 .9-1C4 2 7 1.8 9.4 4c1.7 1.6 2.6 4 2.6 7.1 0 .5-.4.9-.9 1l-7 .9C4.1 13 4 13 4 13zM5.4 4.1c.2.8.5 2 .5 3.4 0 1.3-.1 2.4-.4 3.3l4.5-.6C9.8 8.1 9.2 6.5 8.1 5.4 7.2 4.7 6.2 4.3 5.4 4.1z"/></svg>